<?xml version="1.0" encoding="UTF-8" standalone="no"?>
<!-- Created with Inkscape (http://www.inkscape.org/) -->

<svg
   width="41.484081mm"
   height="11.770175mm"
   viewBox="0 0 41.484081 11.770175"
   version="1.1"
   id="svg1"
   inkscape:version="1.4.3 (0d15f75042, 2025-12-25)"
   sodipodi:docname="hero.svg"
   xmlns:inkscape="http://www.inkscape.org/namespaces/inkscape"
   xmlns:sodipodi="http://sodipodi.sourceforge.net/DTD/sodipodi-0.dtd"
   xmlns="http://www.w3.org/2000/svg"
   xmlns:svg="http://www.w3.org/2000/svg">
  <sodipodi:namedview
     id="namedview1"
     pagecolor="#ffffff"
     bordercolor="#000000"
     borderopacity="0.25"
     inkscape:showpageshadow="2"
     inkscape:pageopacity="0.0"
     inkscape:pagecheckerboard="0"
     inkscape:deskcolor="#d1d1d1"
     inkscape:document-units="mm"
     inkscape:zoom="6.5966078"
     inkscape:cx="79.737953"
     inkscape:cy="18.873337"
     inkscape:window-width="2560"
     inkscape:window-height="1570"
     inkscape:window-x="0"
     inkscape:window-y="0"
     inkscape:window-maximized="1"
     inkscape:current-layer="g1"
     showgrid="false" />
  <defs
     id="defs1" />
  <g
     inkscape:label="Layer 1"
     inkscape:groupmode="layer"
     id="layer1"
     transform="translate(0.04576553)">
    <g
       id="g1">
      <path
         d="M 0.91269461,2.0165069 V 6.0183177 H 9.2154369e-7 V 0.10921115 H 1.2637306 L 2.3987471,4.1929303 h 0.039004 L 3.5727677,0.10921115 H 4.8364974 V 6.0183177 H 3.9199033 V 2.0165069 H 3.8847997 L 2.777086,6.0183177 H 2.0594123 L 0.95169861,2.0165069 Z M 5.3423038,4.2709383 V 0.10921115 H 6.2744995 V 4.0486155 q 0,0.9868013 0.6357652,1.2247257 0.1638168,0.062406 0.3666377,0.062406 0.2028208,0 0.3666376,-0.054606 Q 7.8073568,5.2265364 7.9087672,5.144628 8.0101776,5.0627196 8.0842852,4.9379068 8.1583928,4.8091936 8.1934964,4.7038828 8.2286,4.598572 8.2520025,4.4542572 8.2754049,4.2670379 8.2754049,4.0486155 V 0.10921115 H 9.2271025 V 4.2709383 q 0,0.8931917 -0.5889604,1.4158454 -0.4875501,0.4329444 -1.3573393,0.4329444 -1.3222358,0 -1.7551802,-1.0024029 Q 5.3423038,4.7038828 5.3423038,4.2709383 Z M 9.3194659,4.5049624 10.068343,4.2592371 q 0.0039,0 0.0156,0.058506 0.0117,0.058506 0.039,0.1560161 0.0312,0.09361 0.08191,0.2106216 0.0546,0.1131116 0.156016,0.2301236 0.10141,0.1131116 0.237924,0.2067212 0.304231,0.214522 0.756678,0.214522 0.452446,0 0.663068,-0.2223228 0.214522,-0.2223228 0.214522,-0.526554 0,-0.3081317 -0.06241,-0.4953509 Q 12.108252,3.9004003 11.952236,3.7599859 11.690909,3.5259619 11.047343,3.3387427 9.9123268,3.0072086 9.5885935,2.3129374 9.4208763,1.9502001 9.4208763,1.4587497 q 0,-0.4134425 0.29253,-0.8073829 Q 10.224359,-6.0535967e-8 11.164355,-6.0535967e-8 q 0.744977,0 1.220826,0.448546040535967 0.339334,0.31593243 0.507052,0.79568172 l 0.07411,0.2067212 q 0.0351,0.09361 0.0468,0.1209124 L 12.252567,1.8409889 Q 11.995141,1.0219048 11.449084,0.83078522 11.31257,0.78398041 11.164355,0.78398041 q -0.811283,0 -0.811283,0.83468569 0,0.3822392 0.226223,0.58506 0.187219,0.1755181 0.491451,0.2769285 l 0.187219,0.062406 q 0.159916,0.054606 0.175518,0.058506 l 0.171618,0.058506 q 0.666968,0.234024 0.900992,0.4134424 0.343235,0.2652273 0.448546,0.4875501 0.210622,0.4563468 0.210622,0.9633989 0,0.3978408 -0.226224,0.8073828 -0.304231,0.5499565 -0.963398,0.7215741 -0.253526,0.066307 -0.553857,0.066307 -0.300331,0 -0.565558,-0.054606 Q 10.594897,6.0105169 10.403777,5.9169073 10.212658,5.8232977 10.052741,5.7023853 9.8928248,5.5814729 9.7836135,5.4488592 9.6744023,5.3123452 9.5924939,5.1797316 9.5105855,5.0432176 9.4598803,4.9223052 9.4130755,4.8013928 9.3818723,4.7077832 9.3506691,4.6141736 9.3350675,4.559568 9.3233663,4.5049624 9.3194659,4.5049624 Z M 13.222521,6.0183177 V 0.10921115 h 0.932196 V 6.0183177 Z m 1.176675,-2.2232282 q -0.06241,-0.3666376 -0.06241,-0.7410761 0,-0.3744384 0.05851,-0.7371756 0.05851,-0.3627373 0.171618,-0.7059725 Q 14.683925,1.2637297 14.867244,0.97510003 15.054463,0.68257 15.292387,0.46414758 15.799439,-6.0535967e-8 16.552217,-6.0535967e-8 q 0.955598,0 1.509455,0.955598090535967 0.269127,0.46414767 0.362737,0.95559807 v 0.0039 L 17.613125,2.1335189 Q 17.550719,1.7161761 17.46491,1.5250565 17.379101,1.3300365 17.293293,1.2013233 17.207484,1.0687096 17.106073,0.98290083 16.864249,0.78398041 16.556117,0.78398041 q -0.304231,0 -0.522654,0.14041442 -0.218422,0.13651397 -0.358836,0.36273727 -0.140415,0.2223228 -0.234025,0.5226536 -0.171617,0.5538569 -0.171617,1.2481281 0,1.840989 0.87369,2.1998258 0.187219,0.078008 0.39784,0.078008 0.210622,0 0.374439,-0.054606 0.167717,-0.054606 0.280829,-0.1404144 0.113111,-0.089709 0.19892,-0.2106216 0.08971,-0.1209124 0.140414,-0.2418248 0.05461,-0.1248128 0.08581,-0.253526 0.05851,-0.2262233 0.05851,-0.4212433 l 0.86979,0.1209124 q -0.175518,0.7488769 -0.612363,1.2988333 -0.553857,0.6864705 -1.392443,0.6864705 -1.029706,0 -1.65767,-0.9790005 -0.354937,-0.5499564 -0.48755,-1.3456381 z m 5.789602,2.2232282 V 0.10921115 h 0.932196 V 6.0183177 Z m 0.962153,-1.5133553 0.748877,-0.2457253 q 0.0039,0 0.0156,0.058506 0.0117,0.058506 0.039,0.1560161 0.0312,0.09361 0.08191,0.2106216 0.0546,0.1131116 0.156016,0.2301236 0.10141,0.1131116 0.237924,0.2067212 0.304231,0.214522 0.756678,0.214522 0.452446,0 0.663068,-0.2223228 0.214522,-0.2223228 0.214522,-0.526554 0,-0.3081317 -0.06241,-0.4953509 -0.06241,-0.1911196 -0.218422,-0.331534 -0.261327,-0.234024 -0.904893,-0.4212432 -1.135016,-0.3315341 -1.45875,-1.0258053 -0.167717,-0.3627373 -0.167717,-0.8541877 0,-0.4134425 0.29253,-0.8073829 Q 22.055844,-6.0535967e-8 22.99584,-6.0535967e-8 q 0.744977,0 1.220825,0.448546040535967 0.339335,0.31593243 0.507052,0.79568172 l 0.07411,0.2067212 q 0.0351,0.09361 0.0468,0.1209124 L 24.084052,1.8409889 Q 23.826625,1.0219048 23.280569,0.83078522 23.144055,0.78398041 22.99584,0.78398041 q -0.811283,0 -0.811283,0.83468569 0,0.3822392 0.226223,0.58506 0.187219,0.1755181 0.49145,0.2769285 l 0.18722,0.062406 q 0.159916,0.054606 0.175518,0.058506 l 0.171617,0.058506 q 0.666969,0.234024 0.900993,0.4134424 0.343235,0.2652273 0.448546,0.4875501 0.210621,0.4563468 0.210621,0.9633989 0,0.3978408 -0.226223,0.8073828 -0.304231,0.5499565 -0.963399,0.7215741 -0.253526,0.066307 -0.553857,0.066307 -0.30033,0 -0.565558,-0.054606 -0.261326,-0.054606 -0.452446,-0.1482152 -0.19112,-0.09361 -0.351036,-0.214522 Q 21.72431,5.5814729 21.615098,5.4488592 21.505887,5.3123452 21.423979,5.1797316 21.34207,5.0432176 21.291365,4.9223052 q -0.0468,-0.1209124 -0.07801,-0.214522 -0.0312,-0.09361 -0.0468,-0.1482152 -0.0117,-0.054606 -0.0156,-0.054606 z M 29.791746,3.7365835 V 0.10921115 h 0.928295 V 6.0183177 H 29.978965 L 27.59192,1.4860525 V 6.0183177 H 26.663625 V 0.10921115 h 1.201323 z m 2.182979,-1.4977538 q -0.039,0.2301237 -0.0546,0.4329445 -0.0156,0.2028208 -0.0156,0.4173428 0,0.2106216 0.0156,0.4173429 0.0156,0.2067212 0.0546,0.4368448 0.0429,0.2301236 0.105311,0.4251436 0.06241,0.1950201 0.167717,0.3783389 0.109212,0.1794184 0.241825,0.3081316 0.300331,0.2808288 0.756678,0.2808288 1.26763,0 1.26763,-2.2544314 0,-1.8370885 -0.858088,-2.21542738 -0.187219,-0.0819084 -0.417343,-0.0819084 -0.226223,0 -0.421243,0.0819084 -0.19112,0.0819084 -0.327634,0.21842238 -0.132613,0.1326137 -0.241825,0.3237333 -0.10531,0.1911196 -0.167717,0.3939404 -0.06241,0.2028208 -0.105311,0.4368448 z m -0.963398,1.4353474 q -0.039,-0.2964304 -0.039,-0.5889605 0,-0.29253 0.0351,-0.5889604 0.0351,-0.2964305 0.117012,-0.6006617 0.08191,-0.3081316 0.202821,-0.5811596 Q 31.448171,1.0414068 31.63149,0.79958201 31.818709,0.55385679 32.048833,0.37833877 32.544184,-6.0535967e-8 33.254057,-6.0535967e-8 q 0.9751,0 1.56016,0.803482470535967 0.631865,0.87368969 0.631865,2.28173419 0,1.4353474 -0.608463,2.2622322 -0.569458,0.7722793 -1.583562,0.7722793 -0.963399,0 -1.579662,-0.7761797 -0.522654,-0.6552672 -0.663068,-1.6693713 z m 4.14878,-3.56496595 h 0.963399 l 0.865889,3.96670715 h 0.0351 l 0.850288,-3.96670715 h 0.88149 l 0.834686,3.96670715 h 0.0468 l 0.865889,-3.96670715 h 0.936096 L 40.070711,6.0183177 H 39.200922 L 38.335033,1.8955945 h -0.039 l -0.881491,4.1227232 h -0.885391 z"
         id="text1"
         style="font-weight:bold;font-size:7.98802px;font-family:'News Cycle';-inkscape-font-specification:'News Cycle, Bold';text-align:center;letter-spacing:-0.449792px;text-anchor:middle;stroke-width:0.526958"
         transform="scale(0.9999654,1.0000346)"
         aria-label="MUSIC IS NOW" />
      <path
         d="M 0.54208683,10.53169 Q 0.19394126,10.394714 0.06267326,10.160715 -0.06859475,9.9267154 -0.04576553,9.6413502 -0.01722901,9.3502777 0.13686821,9.0249613 0.29667274,8.6939376 0.52496492,8.362914 0.7589644,8.0318903 1.0386223,7.7179886 1.3182802,7.4040868 1.5922309,7.1415508 1.8661815,6.8790148 2.1058883,6.6849665 2.345595,6.4909181 2.493985,6.3996012 2.6994479,6.2740405 2.8364232,6.2797479 q 0.1369753,0 0.2168776,0.085609 0.08561,0.079902 0.1141461,0.2282922 0.034244,0.1426826 0.028536,0.3081944 0,0.1598046 -0.034244,0.3253164 -0.028537,0.1598045 -0.079902,0.2796579 -0.045658,0.1198534 -0.1027315,0.1769264 -0.051366,0.057073 -0.1027314,0.00571 -0.00571,-0.045658 0.011415,-0.1369754 0.017122,-0.097024 0.039951,-0.2168775 0.028536,-0.1198534 0.051366,-0.2454141 0.022829,-0.1255607 0.028537,-0.2282922 0.011415,-0.1084388 -0.00571,-0.1826337 -0.011415,-0.074195 -0.06278,-0.08561 Q 2.739399,6.5422839 2.4597411,6.6906738 2.1857905,6.8333564 1.8833034,7.107307 1.5865235,7.3755503 1.2897437,7.7351105 0.99867119,8.0889634 0.7589644,8.4656455 0.51925761,8.8423276 0.36516039,9.2018877 0.21106317,9.5557406 0.18823395,9.8296912 0.17111204,10.097935 0.30808735,10.246324 0.45076996,10.389007 0.80462284,10.337641 1.1299392,10.291983 1.4038898,10.109349 1.6835477,9.9210081 1.9403764,9.6984232 2.2029124,9.470131 2.4597411,9.2532535 2.7165698,9.0306686 2.9962277,8.9165225 3.0989592,8.8765714 3.1560323,8.945059 3.2188126,9.0135467 3.1902761,9.1105709 3.1560323,9.207595 2.9848131,9.3673996 2.8193013,9.5272041 2.5681799,9.7041305 2.3227658,9.8753497 2.025986,10.052276 1.7292062,10.223495 1.4438409,10.349056 1.164183,10.474617 0.91876892,10.53169 q -0.23970678,0.05707 -0.37668209,0 z m 3.05838587,0 Q 3.3950098,10.366178 3.3208148,10.103642 3.2466199,9.8411058 3.2694491,9.5214968 3.2922783,9.2018877 3.3893025,8.8537422 3.4863267,8.4998893 3.6175947,8.1631583 3.75457,7.8207201 3.9029599,7.5125256 4.0570571,7.2043312 4.1826178,6.9703317 4.3138858,6.7363322 4.3994954,6.5993569 q 0.091317,-0.1369753 0.1027315,-0.131268 0.045658,0.022829 0.06278,0.06278 0.017122,0.034244 0.017122,0.079902 0.00571,0.045658 0,0.091317 -0.00571,0.045658 -0.011415,0.08561 -0.00571,0.011415 -0.034244,0.068488 -0.028536,0.051366 -0.034244,0.06278 -0.4451698,0.975949 -0.6677547,1.6379963 -0.2225848,0.65634 -0.2739506,1.0501441 -0.051366,0.3938036 0.045659,0.5536086 0.1027314,0.154097 0.3024871,0.125561 0.2054629,-0.03424 0.4851209,-0.222585 Q 4.6791533,9.8696424 4.993055,9.5671552 5.3126641,9.2646681 5.6379804,8.8765714 5.9632968,8.4884747 6.2543693,8.0661341 6.5511492,7.6437936 6.7794413,7.2157458 7.0134408,6.7876979 7.1447088,6.3996012 7.1561234,6.3881866 7.1732453,6.3653574 7.1960746,6.3368209 7.2074892,6.3368209 7.3672937,6.4452597 7.3273426,6.7077957 7.2873914,6.9646244 7.1047577,7.31277 6.9278312,7.6609155 6.6310514,8.0661341 6.3399789,8.4713528 5.9918333,8.8651568 5.649395,9.2589608 5.2841276,9.6128137 4.9188601,9.9609592 4.5878364,10.200666 4.2568128,10.440373 3.9942768,10.543104 3.7374481,10.640128 3.6004727,10.53169 Z m 3.0070203,0 q -0.028536,-0.01141 -0.1369753,-0.06278 -0.1027315,-0.05137 -0.1940484,-0.119853 -0.091317,-0.06849 -0.131268,-0.142683 -0.034244,-0.07419 0.074195,-0.12556 0.06278,0.05707 0.1712191,0.136975 0.1141461,0.0799 0.2168776,0.119853 0.3139017,0.01712 0.6106816,0.0057 0.2967798,-0.01712 0.5764377,-0.07419 Q 8.0799775,10.206373 8.3425135,10.08652 8.6107568,9.9609592 8.8618782,9.7612036 9.1415362,9.5272041 9.2271457,9.3331557 9.3184626,9.1334001 9.2613896,8.9678883 9.2100238,8.7966691 9.0388047,8.6539865 8.8732929,8.5055966 8.6392934,8.3800359 8.4110012,8.2487679 8.1484652,8.1403291 7.8859292,8.026183 7.6462224,7.9234515 7.4065156,7.8150128 7.2124673,7.7122813 7.0184189,7.6095498 6.927102,7.501111 6.9042728,7.4040868 7.0241262,7.2728188 7.1439796,7.1415508 7.3551499,7.0045755 7.5663201,6.8618929 7.8402707,6.7249176 8.1142214,6.582235 8.3995866,6.4680889 8.6906591,6.3539428 8.9589024,6.2740405 9.232853,6.1941383 9.438316,6.1770164 q 0.205463,-0.022829 0.3139017,0.028536 0.1084388,0.051366 0.074195,0.1940483 -0.039951,0.00571 -0.205463,0.051366 Q 9.4554379,6.4966254 9.2157311,6.5651131 8.9817316,6.6336007 8.7020737,6.7249176 8.4281231,6.8162345 8.1598798,6.918966 7.8916365,7.0159901 7.6633443,7.1187216 7.4350521,7.2214531 7.3037841,7.3184773 7.1725161,7.4155014 7.1553942,7.4954037 7.1439796,7.575306 7.3094914,7.632379 8.1427579,7.8835004 8.6164642,8.1688656 9.0958777,8.4485235 9.2899261,8.7395961 9.4839744,9.0249613 9.438316,9.3046192 9.3926576,9.5842771 9.1871946,9.8239839 8.9874389,10.063691 8.6621226,10.252032 8.3368062,10.434665 7.9715387,10.537397 7.6119786,10.640128 7.2467111,10.645836 6.8871509,10.651543 6.607493,10.53169 Z m 3.520677,0 q -0.03424,-0.142683 0,-0.325317 0.03995,-0.188341 0.108439,-0.3766818 0.06849,-0.188341 0.14839,-0.3595602 0.0799,-0.1769264 0.131268,-0.2910725 0.02854,-0.068488 0.08561,-0.1997556 0.06278,-0.131268 0.136976,-0.2967799 0.0799,-0.1655118 0.159804,-0.3481455 0.08561,-0.1826338 0.159805,-0.3481456 0.0799,-0.1655118 0.136975,-0.2910725 0.06278,-0.131268 0.09132,-0.1940484 -0.09702,-0.017122 -0.279658,0.017122 -0.176926,0.034244 -0.393804,0.091317 -0.216878,0.051366 -0.44517,0.1084388 -0.2282919,0.057073 -0.4280476,0.08561 -0.1940483,0.022829 -0.3367309,0.00571 -0.1369753,-0.022829 -0.1712192,-0.1198533 0.039951,-0.074195 0.2910726,-0.1712192 0.2511214,-0.097024 0.6392181,-0.1997556 0.393804,-0.1084388 0.873218,-0.2168776 0.48512,-0.1084388 0.987363,-0.205463 0.502243,-0.097024 0.981657,-0.1769264 0.479413,-0.079902 0.856095,-0.131268 0.376682,-0.051366 0.604975,-0.068488 0.233999,-0.017122 0.245414,0.011415 0.01712,0.045659 0.0057,0.1141461 -0.01142,0.06278 -0.0742,0.079902 -0.279658,0.045658 -0.604974,0.1027315 -0.325317,0.051366 -0.662048,0.1141461 -0.331023,0.057073 -0.650632,0.1198534 -0.319609,0.057073 -0.59356,0.1141461 -0.176926,0.034244 -0.342438,0.2054629 -0.165512,0.1712191 -0.319609,0.4280478 -0.154098,0.2511214 -0.29678,0.5650232 -0.142683,0.3081944 -0.273951,0.6278035 -0.12556,0.319609 -0.233999,0.6163889 -0.108439,0.2967798 -0.199756,0.525072 -0.09132,0.222585 -0.159804,0.348146 -0.06849,0.12556 -0.114147,0.102731 -0.01141,-0.01141 -0.03424,-0.03424 -0.02283,-0.02283 -0.02854,-0.02854 z m 2.276485,0 q -0.285365,-0.119854 -0.376682,-0.331024 -0.09132,-0.2168776 -0.06278,-0.4622916 0.02854,-0.2511214 0.136975,-0.5022428 0.114146,-0.2511214 0.234,-0.4451698 0.03995,-0.068488 0.14839,-0.2339995 0.108438,-0.1655118 0.228292,-0.3481455 0.12556,-0.1883411 0.233999,-0.3481456 0.114146,-0.1655118 0.159805,-0.2282922 0.06849,-0.4394624 0.27395,-0.6962911 0.205463,-0.262536 0.462292,-0.3595602 0.262536,-0.097024 0.536487,-0.039951 0.27395,0.051366 0.479413,0.245414 0.205463,0.1883411 0.29678,0.5079501 0.09132,0.3196091 -0.01712,0.7476569 -0.102731,0.4280479 -0.44517,0.9588272 -0.342438,0.5307793 -1.004485,1.1471682 -0.114146,0.108439 -0.273951,0.21117 -0.154097,0.09702 -0.331023,0.159805 -0.17122,0.06278 -0.348146,0.07419 -0.176926,0.01141 -0.331024,-0.05707 z M 12.2049,10.080813 q 0.05707,0.256828 0.216877,0.319609 0.159805,0.06278 0.376682,-0.02283 0.216878,-0.08561 0.473707,-0.291072 0.256828,-0.205463 0.513657,-0.4794136 0.256829,-0.279658 0.490828,-0.6049743 0.234,-0.3253164 0.405219,-0.6449254 0.176926,-0.3196091 0.268243,-0.6106816 0.09132,-0.2910725 0.05707,-0.5022428 Q 14.97865,7.0274047 14.801723,6.918966 14.630504,6.8105272 14.270944,6.8561856 14.139676,6.9703317 13.922798,7.1929166 13.705921,7.4097941 13.460507,7.6894521 13.215093,7.96911 12.969678,8.2944263 12.724264,8.6140354 12.535923,8.9336444 12.347582,9.2532535 12.250558,9.5500333 12.153534,9.8468131 12.2049,10.080813 Z m 6.505597,0.896046 q -0.0057,-0.0057 -0.0057,-0.03424 0,-0.02283 0.0057,-0.03424 0.0057,-0.01141 0.02283,-0.06849 0.01712,-0.05707 0.03995,-0.119853 0.02283,-0.06278 0.03995,-0.119854 0.01712,-0.05707 0.02283,-0.07419 Q 19.00157,9.9952031 19.12713,9.5785698 19.252691,9.1562293 19.366837,8.756718 19.480983,8.3572067 19.589422,7.9348661 19.703568,7.5068183 19.840543,6.9646244 V 6.8390637 q -0.165511,-0.057073 -0.35956,0.011415 -0.188341,0.068488 -0.388096,0.2225849 -0.199756,0.1540972 -0.405219,0.3709748 -0.205463,0.2111702 -0.399511,0.450877 -0.194049,0.2339995 -0.376682,0.467999 -0.182634,0.2282922 -0.336731,0.4223405 -0.154098,0.1883411 -0.279658,0.3139018 -0.119854,0.1198533 -0.194049,0.1369753 -0.05137,0.011415 -0.12556,-0.011415 -0.0742,-0.028537 -0.0742,-0.057073 V 8.7795472 q 0.01712,-0.06278 0.04566,-0.1997556 0.03424,-0.1369754 0.06849,-0.3081945 0.03995,-0.1712191 0.0799,-0.3595602 0.04566,-0.188341 0.0799,-0.3595602 0.03995,-0.1712191 0.06849,-0.3024871 0.02854,-0.1369753 0.04566,-0.2054629 0.02854,-0.1312681 0.05137,-0.2568288 0.02854,-0.1255606 0.01141,-0.262536 -0.171219,-0.057073 -0.365268,0.091317 -0.194048,0.1426826 -0.399511,0.4223405 -0.199756,0.279658 -0.405219,0.6506328 -0.205463,0.3709747 -0.399511,0.7647788 -0.194048,0.393804 -0.376682,0.7761934 -0.176927,0.3823894 -0.325316,0.6791692 -0.14839,0.2910725 -0.262536,0.4679985 -0.108439,0.17122 -0.17122,0.14839 -0.0799,-0.02283 -0.06278,-0.188341 0.02283,-0.165512 0.114146,-0.4166329 0.09132,-0.2568287 0.234,-0.5764378 0.142682,-0.3253163 0.308194,-0.6677546 0.171219,-0.3424382 0.348146,-0.6848765 0.176926,-0.3424383 0.336731,-0.6335108 0.159804,-0.2910725 0.279658,-0.5079501 0.12556,-0.2225849 0.182633,-0.3253164 0.119854,0.045659 0.211171,0.034244 0.09132,-0.017122 0.171219,-0.06278 0.0799,-0.045658 0.154097,-0.1084388 0.0799,-0.06278 0.176926,-0.1198534 0.205463,-0.1255607 0.325317,-0.1084387 0.119853,0.017122 0.171219,0.1255607 0.05707,0.1084387 0.05707,0.2967798 0,0.1826337 -0.02854,0.3995113 -0.02854,0.2168776 -0.0799,0.4451697 -0.04566,0.2225849 -0.09132,0.4166333 -0.04566,0.188341 -0.0799,0.3253163 -0.02854,0.131268 -0.02283,0.1655119 0.04566,0.022829 0.07419,-0.00571 0.03424,-0.028537 0.05707,-0.057073 0.01712,-0.028536 0.0799,-0.1084388 0.06849,-0.079902 0.154097,-0.1826337 0.08561,-0.1084388 0.182634,-0.2282922 0.09702,-0.1198534 0.182634,-0.2225849 0.09132,-0.1084388 0.154097,-0.188341 0.06278,-0.079902 0.08561,-0.1084388 0.496536,-0.393804 0.838974,-0.5821451 0.348146,-0.1940483 0.559316,-0.2168775 0.216878,-0.022829 0.313902,0.1027315 0.09702,0.1255607 0.102731,0.3595601 0.0057,0.2282922 -0.06849,0.5536086 -0.07419,0.319609 -0.199756,0.6905838 -0.01712,0.051366 -0.06849,0.2168776 -0.04566,0.1598045 -0.114146,0.3823894 -0.06849,0.2168775 -0.142682,0.4622916 -0.06849,0.2454141 -0.136976,0.467999 -0.06849,0.2168776 -0.119853,0.3823893 -0.04566,0.159805 -0.06278,0.21117 0,0.0057 -0.01141,0.07419 -0.01141,0.06849 -0.03995,0.165512 -0.02283,0.09132 -0.05707,0.194049 -0.03424,0.108438 -0.08561,0.194048 -0.05137,0.08561 -0.119853,0.131268 -0.06278,0.04566 -0.142683,0.01712 -0.0057,0 -0.02854,-0.02854 -0.02283,-0.02283 -0.02854,-0.03424 z m 1.072244,-0.576437 q -0.01142,-0.03995 -0.0057,-0.108439 0.01141,-0.07419 0.02283,-0.14839 0.01712,-0.07419 0.03424,-0.131268 0.01712,-0.057073 0.01712,-0.06278 l 1.289851,-3.355895 q 0.03995,-0.1027315 0.07419,-0.074195 0.03424,0.022829 0.05137,0.1084388 0.02283,0.079902 0.02283,0.1883411 0,0.1027315 -0.02283,0.1655118 Q 21.084006,7.4155014 20.895665,7.8549639 20.713031,8.288719 20.541812,8.7338888 20.3763,9.1733512 20.22791,9.6242283 20.079521,10.069398 19.976789,10.53169 q -0.04566,0.02854 -0.0799,0.02283 -0.02854,-0.0057 -0.05707,-0.02854 -0.02283,-0.02854 -0.03995,-0.06278 -0.01141,-0.03424 -0.01712,-0.06278 z m 0.895319,0.131268 q -0.108439,-0.0799 0,-0.262536 0.108438,-0.182634 0.348145,-0.4337555 0.245414,-0.2568287 0.587852,-0.5593158 0.342439,-0.3024871 0.707706,-0.6220962 0.370975,-0.319609 0.724828,-0.6335108 0.35956,-0.319609 0.627803,-0.599267 0.268244,-0.2796579 0.410926,-0.5022427 0.14839,-0.2225849 0.09132,-0.3538529 -0.01141,0 -0.131268,0.022829 -0.119853,0.022829 -0.308194,0.057073 -0.188341,0.034244 -0.422341,0.068488 -0.228292,0.034244 -0.462291,0.06278 -0.228293,0.022829 -0.433756,0.034244 -0.199755,0.011415 -0.331023,-0.00571 -0.131268,-0.022829 -0.171219,-0.079902 -0.03424,-0.057073 0.06849,-0.1598045 0.125561,0.017122 0.331024,-0.017122 0.21117,-0.039951 0.456584,-0.091317 0.251122,-0.057073 0.513658,-0.1198534 0.268243,-0.06278 0.50795,-0.1027315 0.239707,-0.039951 0.433755,-0.039951 0.194048,0 0.291072,0.068488 0.102732,0.068488 0.09132,0.2168776 -0.01141,0.1483899 -0.176926,0.4109259 -0.29678,0.467999 -0.650633,0.8332665 -0.353853,0.3595602 -0.741949,0.6848765 -0.388097,0.3253164 -0.793316,0.6449254 -0.405218,0.3196091 -0.799022,0.7077058 -0.0057,0 -0.06278,0.06278 -0.05707,0.057073 -0.12556,0.1426826 -0.06278,0.079902 -0.108439,0.1655115 -0.04566,0.08561 -0.02854,0.136976 0.06278,0.01712 0.291073,-0.02854 0.228292,-0.04566 0.553608,-0.125561 0.325317,-0.0799 0.713413,-0.1712187 0.388097,-0.097024 0.776194,-0.1826337 0.388096,-0.08561 0.736242,-0.1426826 0.353853,-0.057073 0.599267,-0.057073 0.251121,0 0.365268,0.074195 0.114146,0.074195 0.02854,0.2454141 -0.142683,0.011415 -0.405219,0.051366 -0.262536,0.034244 -0.599267,0.091317 -0.331023,0.05137 -0.713413,0.119853 -0.376682,0.06278 -0.759071,0.131268 -0.376682,0.06278 -0.730535,0.119853 -0.353853,0.05707 -0.633511,0.09703 -0.27395,0.03424 -0.456584,0.05136 -0.176927,0.01142 -0.21117,-0.01141 z m 3.737555,1.118631 q -0.01712,-0.01141 -0.05137,-0.05707 -0.03995,-0.03995 -0.06278,-0.08561 -0.02283,-0.04566 -0.01712,-0.0799 0,-0.03424 0.06278,-0.03424 0.119853,0.165511 0.336731,0.12556 0.216877,-0.03995 0.467999,-0.199755 0.251121,-0.154098 0.50795,-0.393804 0.262536,-0.234 0.467999,-0.467999 0.21117,-0.234 0.342438,-0.422341 0.136975,-0.1883409 0.136975,-0.2511212 0,-0.017122 -0.04566,-0.051366 -0.04566,-0.039951 -0.108439,-0.079902 -0.05707,-0.039951 -0.108439,-0.074195 -0.05137,-0.034244 -0.06278,-0.051366 0.01712,-0.057073 0.108439,-0.08561 0.09132,-0.034244 0.205463,-0.057073 0.114146,-0.028536 0.222585,-0.051366 0.114146,-0.028537 0.171219,-0.068488 0.302487,-0.4394625 0.525072,-0.787608 0.228292,-0.3538529 0.428048,-0.6905839 0.205463,-0.3424382 0.416633,-0.7019984 0.21117,-0.3595602 0.485121,-0.8104373 0.07419,-0.1255606 0.119853,-0.08561 0.04566,0.039951 0.06849,0.1940483 0.02283,0.1540973 0.02854,0.393804 0.0057,0.2339995 0,0.5079501 -0.0057,0.2739507 -0.02283,0.5593159 -0.01141,0.2853652 -0.02854,0.525072 -0.01141,0.2397068 -0.02283,0.4166332 -0.0057,0.1712191 0,0.2225849 0.02283,0.2910725 0.02854,0.5079501 0.01141,0.2111702 0.05707,0.393804 0.04566,0.1769265 0.154097,0.3481455 0.114146,0.165512 0.342438,0.365268 -0.188341,0.06278 -0.313901,-0.01141 -0.119854,-0.06849 -0.199756,-0.21117 -0.07419,-0.14839 -0.125561,-0.336731 -0.04566,-0.1940486 -0.09132,-0.3709751 -0.03995,-0.1826337 -0.09702,-0.3139017 -0.05137,-0.1369753 -0.142682,-0.1769265 -0.0057,0 -0.03424,0 -0.02283,-0.00571 -0.05707,-0.00571 -0.02854,0 -0.05707,0.00571 -0.02854,0 -0.03995,0 -0.05137,0.011415 -0.194049,0.045659 -0.136975,0.034244 -0.302487,0.074195 -0.165512,0.039951 -0.319609,0.079902 -0.14839,0.039951 -0.216877,0.057073 -0.142683,0.039951 -0.302488,0.1826338 -0.154097,0.1426826 -0.331023,0.3481456 -0.171219,0.1997552 -0.35956,0.4394622 -0.182634,0.239707 -0.376683,0.467999 -0.194048,0.228292 -0.393804,0.422341 -0.199755,0.194048 -0.399511,0.313901 -0.199755,0.119854 -0.399511,0.131268 -0.205463,0.01712 -0.399511,-0.114146 z m 3.093359,-2.5112136 q 0.01141,0.00571 0.05707,0.00571 0.05137,0 0.06849,-0.00571 0.102732,-0.017122 0.256829,-0.039951 0.154097,-0.022829 0.308194,-0.051366 0.154098,-0.034244 0.285366,-0.074195 0.131268,-0.045659 0.182633,-0.097024 0,0 0.01712,-0.1198534 0.01712,-0.1198534 0.03995,-0.3024871 0.02283,-0.1883411 0.04566,-0.410926 0.02854,-0.2282921 0.05137,-0.4451697 0.02283,-0.2168776 0.03424,-0.3995113 0.01712,-0.1883411 0.02283,-0.2910726 -0.06278,-0.028536 -0.165512,0.14839 -0.102732,0.1712191 -0.268244,0.4737062 -0.159804,0.3024872 -0.393804,0.7077058 -0.228292,0.3995113 -0.542193,0.8332664 z m 2.139509,1.4382406 q -0.171219,-0.09702 -0.239707,-0.188341 -0.06849,-0.09132 -0.06849,-0.194048 0,-0.102732 0.05137,-0.2282925 0.05137,-0.1255607 0.119853,-0.2910725 0.01712,-0.034244 0.06849,-0.1369753 0.05137,-0.1084388 0.114146,-0.2511214 0.06849,-0.1426826 0.142683,-0.2967798 0.0799,-0.1598046 0.142682,-0.3024872 0.06849,-0.1426826 0.114146,-0.2454141 0.05137,-0.1084387 0.06849,-0.1426826 0.07419,-0.1598045 0.06278,-0.2796579 -0.0057,-0.1255607 -0.02854,-0.2339995 -0.01712,-0.1084388 -0.01712,-0.2111702 0.0057,-0.1027315 0.108439,-0.2339995 0.01712,-0.017122 0.0742,-0.079902 0.05707,-0.06278 0.119853,-0.131268 0.06849,-0.074195 0.125561,-0.131268 0.05707,-0.06278 0.06849,-0.079902 0.02854,-0.034244 0.159805,-0.1141461 0.136975,-0.079902 0.331024,-0.1712192 0.194048,-0.097024 0.428047,-0.1940483 0.239707,-0.1027315 0.473707,-0.1769265 0.233999,-0.079902 0.450877,-0.1198534 0.216877,-0.039951 0.370975,-0.022829 0.154097,0.017122 0.222584,0.1084388 0.07419,0.091317 0.02283,0.2796579 -0.08561,0.3081945 -0.279658,0.542194 -0.188341,0.2339994 -0.399512,0.4166332 -0.21117,0.1826337 -0.405218,0.3253163 -0.188341,0.1426826 -0.279658,0.2682433 0.684876,0.022829 0.998778,0.1655119 0.319609,0.1426826 0.35956,0.3595602 0.04566,0.2168775 -0.136975,0.4851208 -0.182634,0.262536 -0.502243,0.525072 -0.319609,0.2568287 -0.724827,0.4908283 -0.405219,0.228292 -0.810438,0.376682 -0.399511,0.14839 -0.753364,0.188341 -0.348145,0.03995 -0.553608,-0.07419 z M 30.09936,9.1961804 q -0.108439,0.131268 -0.199756,0.2910726 -0.09132,0.1540972 -0.142683,0.3081944 -0.04566,0.1483899 -0.03995,0.2853656 0.0057,0.131268 0.08561,0.216877 0.0799,0.0799 0.239707,0.09702 0.165511,0.01712 0.439462,-0.06278 0.604974,-0.136975 1.050144,-0.3481456 0.450877,-0.2111702 0.74195,-0.4394624 0.29678,-0.2339995 0.433755,-0.4622917 0.142682,-0.2282921 0.131268,-0.3995113 -0.0057,-0.1769264 -0.165512,-0.2682433 -0.154097,-0.091317 -0.450877,-0.051366 -0.29678,0.034244 -0.736242,0.2339995 -0.433755,0.1940483 -1.004486,0.5992669 -0.06278,0.051366 -0.114146,0.051366 -0.05137,-0.00571 -0.09702,-0.022829 -0.04566,-0.022829 -0.08561,-0.039951 -0.03995,-0.017122 -0.08561,0.011415 z m 0.12556,-0.4794135 q 0,0.017122 -0.0057,0.051366 0,0.034244 0,0.074195 0,0.034244 0,0.068488 0.0057,0.034244 0.0057,0.051366 0.04566,-0.011415 0.188341,-0.1084387 0.142683,-0.097024 0.342439,-0.2511214 0.205463,-0.1540973 0.445169,-0.3481456 0.239707,-0.1997557 0.479414,-0.4109259 0.245414,-0.2168776 0.462292,-0.4280479 0.222585,-0.2168775 0.382389,-0.4052186 0.159805,-0.188341 0.239707,-0.3310236 0.08561,-0.14839 0.05137,-0.2282922 -0.251122,-0.034244 -0.53078,0.034244 -0.27395,0.06278 -0.542194,0.1883411 -0.262536,0.1255607 -0.490828,0.2910725 -0.228292,0.1598045 -0.382389,0.3139017 -0.03424,0.074195 -0.114146,0.262536 -0.0799,0.1883411 -0.176927,0.3995114 -0.09132,0.2111702 -0.176926,0.3995113 -0.0799,0.1826337 -0.114146,0.2568287 0,0.011415 -0.02854,0.06278 -0.02854,0.045658 -0.03424,0.057073 z m 2.801559,1.8149231 q -0.09132,-0.06278 -0.0742,-0.188341 0.01712,-0.125561 0.0799,-0.256829 0.06278,-0.14839 0.182634,-0.3253164 0.182633,-0.3481456 0.325316,-0.6220962 0.14839,-0.2796579 0.273951,-0.525072 0.12556,-0.2454141 0.239707,-0.4737063 0.114146,-0.2282922 0.228292,-0.4794136 0.119853,-0.2511214 0.245414,-0.5364866 0.12556,-0.2853652 0.279658,-0.6506327 0.01141,-0.022829 0.03424,-0.06278 0.02854,-0.045659 0.06278,-0.068488 0.03995,-0.028537 0.0799,-0.017122 0.03995,0.00571 0.0799,0.079902 0.05707,0.114146 0.0057,0.3139017 -0.04566,0.1997557 -0.165512,0.4622917 -0.119854,0.2568287 -0.285365,0.5593158 -0.165512,0.2967798 -0.348146,0.6049743 -0.182634,0.3081944 -0.35956,0.6106815 -0.176927,0.3024872 -0.313902,0.5650232 -0.131268,0.262536 -0.205463,0.4794132 -0.06849,0.211171 -0.04566,0.336731 0.405218,0.03995 0.816144,-0.0057 0.410926,-0.04566 0.821852,-0.108439 0.410926,-0.06849 0.821852,-0.119853 0.416633,-0.05137 0.827559,-0.02283 0.07419,-0.01141 0.125561,0.05137 0.05137,0.06278 0.0057,0.136976 -0.01141,0 -0.05137,0 -0.03424,-0.0057 -0.0742,-0.0057 -0.03995,0 -0.0799,0.0057 -0.03424,0 -0.05137,0 -0.319609,0.02854 -0.747656,0.102731 -0.428048,0.06849 -0.884633,0.131268 -0.456584,0.06278 -0.913168,0.09702 -0.450877,0.03424 -0.816145,-0.0057 -0.0057,0 -0.05707,-0.02283 -0.04566,-0.02854 -0.06278,-0.03995 z m 3.475019,-0.06849 q -0.03424,-0.02854 0.01712,-0.06278 0.05707,-0.205463 0.114146,-0.393804 0.06278,-0.1883414 0.131268,-0.3709751 0.06849,-0.1883411 0.142683,-0.3766821 0.0799,-0.1940484 0.165512,-0.4052186 0.02854,-0.051366 -0.01141,-0.1027315 -0.03424,-0.057073 -0.08561,-0.1084388 -0.04566,-0.057073 -0.06849,-0.1141461 -0.01712,-0.06278 0.04566,-0.1255607 0.0057,-0.00571 0.03995,-0.017122 0.03995,-0.011415 0.08561,-0.017122 0.04566,-0.011415 0.0799,-0.017122 0.03995,-0.011415 0.05137,-0.017122 0.01712,-0.011415 0.06278,-0.057073 0.05137,-0.051366 0.06278,-0.068488 0.09132,-0.1540973 0.171219,-0.2739507 0.08561,-0.1198533 0.154097,-0.2397067 0.0742,-0.1198534 0.131268,-0.2511214 0.05707,-0.131268 0.102731,-0.3081945 0.01712,-0.068488 -0.03424,-0.08561 -0.04566,-0.022829 -0.108439,-0.039951 -0.06278,-0.017122 -0.102732,-0.051366 -0.03995,-0.039951 -0.0057,-0.1426826 0.02283,-0.06278 0.216878,-0.1369753 0.199755,-0.074195 0.502242,-0.1426826 0.302488,-0.068488 0.67917,-0.1255607 0.376682,-0.057073 0.753364,-0.091317 0.376682,-0.034244 0.71912,-0.039951 0.342438,-0.011415 0.582145,0.022829 0.239707,0.028537 0.342439,0.1084388 0.102731,0.074195 -0.0057,0.2111702 -0.05137,0.011415 -0.108439,0.00571 -0.05137,-0.011415 -0.108438,-0.028536 -0.05707,-0.017122 -0.119854,-0.028537 -0.06278,-0.017122 -0.119853,-0.011415 -0.273951,0.022829 -0.536487,0.017122 -0.262536,-0.00571 -0.525072,-0.00571 -0.262536,0 -0.525072,0.022829 -0.262536,0.017122 -0.525072,0.091317 -0.182634,0.051366 -0.325316,0.1826337 -0.142683,0.1255607 -0.273951,0.3253164 -0.12556,0.1940483 -0.256828,0.450877 -0.125561,0.2568287 -0.285366,0.5650232 0.06278,0.017122 0.234,-0.022829 0.176926,-0.039951 0.399511,-0.097024 0.228292,-0.06278 0.479414,-0.1198534 0.251121,-0.06278 0.467999,-0.08561 0.222585,-0.028536 0.388096,0 0.165512,0.022829 0.222585,0.131268 0.0057,0.011415 0.0057,0.034244 0,0.022829 -0.0057,0.028537 -0.302487,0.045658 -0.627803,0.085609 -0.319609,0.034244 -0.639218,0.091317 -0.313902,0.057073 -0.616389,0.1540972 -0.302487,0.091317 -0.570731,0.2511214 -0.216877,0.3823894 -0.388096,0.787608 -0.17122,0.4052186 -0.302488,0.8218522 0.165512,-0.05707 0.38239,-0.108439 0.222585,-0.05707 0.42234,-0.102732 0.205463,-0.04566 0.353853,-0.074195 0.154098,-0.028536 0.182634,-0.034244 0.485121,-0.074195 0.930291,-0.1141461 0.450877,-0.045658 0.935998,-0.017122 0.03995,0.011415 0.05707,0.045659 0.01712,0.034244 0.02283,0.079902 0.0057,0.039951 0,0.079903 -0.0057,0.03995 -0.01141,0.05707 -0.622096,-0.03424 -1.238485,0.04566 -0.610681,0.0799 -1.215656,0.21117 -0.09702,0.02283 -0.239706,0.0799 -0.136976,0.05707 -0.285366,0.102731 -0.142682,0.04566 -0.279658,0.06278 -0.131268,0.01712 -0.222584,-0.04566 -0.02283,-0.01141 -0.03995,-0.02854 -0.01712,-0.01712 -0.02283,-0.04566 z m 3.885945,0.06849 q -0.0799,-0.119854 -0.04566,-0.239707 0.03995,-0.125561 0.131268,-0.188341 0.09132,-0.06849 0.199755,-0.05137 0.108439,0.01141 0.165512,0.154097 0.03424,0.08561 -0.01141,0.182634 -0.03995,0.09132 -0.119854,0.154097 -0.0799,0.05707 -0.171219,0.06278 -0.09132,0.01141 -0.14839,-0.0742 z"
         id="text1-7"
         style="font-size:5.84428px;font-family:'Nothing You Could Do';-inkscape-font-specification:'Nothing You Could Do, Normal';text-align:center;letter-spacing:-0.463021px;text-anchor:middle;stroke-width:0.337169"
         aria-label="CUSTOMIZABLE." />
    </g>
  </g>
</svg>
